<svg width="77" height="64" viewBox="0 0 77 64" fill="none" xmlns="http://www.w3.org/2000/svg">
<mask id="mask0_76_1300" style="mask-type:luminance" maskUnits="userSpaceOnUse" x="0" y="-1" width="77" height="65">
<path fill-rule="evenodd" clip-rule="evenodd" d="M13.1061 17.0646C13.1061 16.7457 13.2002 16.434 13.3764 16.1689C13.5526 15.9038 13.803 15.6971 14.0961 15.575C14.3892 15.453 14.7117 15.421 15.0229 15.4831C15.334 15.5453 15.6199 15.6988 15.8443 15.9242C16.0686 16.1496 16.2215 16.4368 16.2834 16.7495C16.3454 17.0622 16.3137 17.3864 16.1924 17.681C16.071 17.9756 15.8655 18.2274 15.6018 18.4046C15.3381 18.5818 15.028 18.6765 14.7107 18.6766C14.2853 18.6766 13.8772 18.5067 13.5763 18.2045C13.2754 17.9022 13.1063 17.4922 13.1061 17.0646ZM2.90529 28.3004C2.9054 27.9816 2.99955 27.67 3.17585 27.405C3.35214 27.1399 3.60265 26.9334 3.89572 26.8115C4.18879 26.6895 4.51127 26.6576 4.82236 26.7199C5.13345 26.7821 5.41919 26.9356 5.64348 27.161C5.86777 27.3865 6.02053 27.6736 6.08244 27.9863C6.14435 28.299 6.11263 28.623 5.99129 28.9176C5.86996 29.2121 5.66447 29.4639 5.40079 29.6411C5.1371 29.8183 4.82706 29.9129 4.50987 29.913C4.29912 29.9131 4.0904 29.8714 3.89567 29.7904C3.70094 29.7094 3.52401 29.5906 3.37496 29.4409C3.22591 29.2911 3.10768 29.1133 3.02701 28.9176C2.94634 28.7219 2.90483 28.5122 2.90483 28.3004H2.90529ZM13.1061 39.3197C13.1062 39.0008 13.2004 38.6892 13.3767 38.4242C13.553 38.1591 13.8035 37.9526 14.0966 37.8306C14.3897 37.7086 14.7122 37.6767 15.0233 37.739C15.3344 37.8012 15.6202 37.9547 15.8445 38.1802C16.0688 38.4056 16.2216 38.6928 16.2835 39.0055C16.3454 39.3182 16.3137 39.6423 16.1923 39.9369C16.0709 40.2314 15.8654 40.4832 15.6017 40.6604C15.338 40.8376 15.0279 40.9322 14.7107 40.9323C14.5 40.9323 14.2914 40.8906 14.0967 40.8096C13.902 40.7285 13.7251 40.6097 13.5761 40.46C13.4271 40.3102 13.3089 40.1325 13.2283 39.9368C13.1477 39.7411 13.1061 39.5314 13.1061 39.3197ZM38.6156 28.3001C38.6159 26.1085 39.2267 23.9608 40.3788 22.1001C41.5309 20.2394 43.1783 18.74 45.1345 17.7717C47.0907 16.8034 49.2775 16.4048 51.4474 16.621C53.6174 16.8373 55.6837 17.6598 57.4126 18.9954C59.1414 20.331 60.4637 22.1263 61.2298 24.1782C61.9959 26.2301 62.1751 28.4565 61.7471 30.6055C61.3192 32.7544 60.3013 34.7401 58.8085 36.3376C57.3157 37.9351 55.4078 39.0807 53.3007 39.6448V34.464C54.6862 33.7813 55.8009 32.6472 56.4631 31.2465C57.1253 29.8457 57.2959 28.2609 56.9473 26.7501C56.5987 25.2394 55.7513 23.8919 54.5432 22.9271C53.3351 21.9623 51.8376 21.4371 50.2945 21.4371C48.7515 21.4371 47.2539 21.9623 46.0458 22.9271C44.8378 23.8919 43.9904 25.2394 43.6418 26.7501C43.2931 28.2609 43.4638 29.8457 44.126 31.2465C44.7882 32.6472 45.9029 33.7813 47.2884 34.464V39.6448C44.8011 38.9782 42.6025 37.5048 41.0341 35.4533C39.4657 33.4018 38.6154 30.8872 38.6151 28.3001H38.6156ZM33.9341 26.029C34.3505 23.0009 35.5908 20.1473 37.5182 17.7826C39.4456 15.4179 41.9853 13.634 44.8573 12.6277C47.7293 11.6214 50.822 11.4316 53.7944 12.0794C56.7669 12.7272 59.5036 14.1874 61.7029 16.2989C63.9022 18.4105 65.4786 21.0914 66.2583 24.0461C67.0381 27.0008 66.9909 30.1145 66.122 33.0439C65.253 35.9733 63.5961 38.6047 61.3338 40.648C59.0715 42.6912 56.2918 44.0669 53.3011 44.6234V46.4566C53.3011 47.2579 52.9844 48.0264 52.4207 48.593C51.8569 49.1596 51.0923 49.4779 50.295 49.4779C49.4977 49.4779 48.7331 49.1596 48.1694 48.593C47.6056 48.0264 47.2889 47.2579 47.2889 46.4566V44.6234C43.8767 43.987 40.7504 42.2871 38.3533 39.7648C35.9563 37.2425 34.4101 34.0258 33.9341 30.5708H8.66075C7.85933 32.0477 6.70983 33.0496 4.50892 33.0496C2.30801 33.0496 0 30.9233 0 28.3002C0 25.6771 2.30801 23.5508 4.50892 23.5508C6.70983 23.5508 7.85893 24.5527 8.66036 26.029H33.9336H33.9341ZM50.2951 4.96614L72.1505 11.9468H72.1644V38.4275C72.1644 46.3911 57.4828 56.6057 50.2951 59.018C43.1078 56.6056 28.4261 46.3911 28.4261 38.4275V37.0484H18.861C18.0598 35.5719 16.9107 34.57 14.7098 34.57C12.5089 34.57 10.2008 36.6964 10.2008 39.3195C10.2008 41.9426 12.509 44.0689 14.7098 44.0689C16.9105 44.0689 18.0602 43.0669 18.8615 41.5902H23.9996C25.7356 50.4048 40.7747 61.1388 49.5777 63.8913C49.8079 63.9629 50.0476 63.9994 50.2885 63.9995H50.3008C50.5418 63.9994 50.7815 63.9629 51.0118 63.8913C62.2393 60.3806 76.9999 49.3011 76.9999 37.0488V10.1435C76.9968 9.62165 76.8281 9.11439 76.5182 8.69561C76.2084 8.27682 75.7736 7.96837 75.2772 7.81519L50.9904 0.101363C50.7655 0.0320459 50.5314 -0.00235007 50.2962 -0.000641229H50.2936C50.0584 -0.00211137 49.8243 0.0322794 49.5993 0.101363L25.3125 7.81519C24.8161 7.96845 24.3814 8.2769 24.0715 8.69567C23.7617 9.11443 23.5928 9.62165 23.5896 10.1435V14.7935H18.8614C18.0602 13.3169 16.911 12.3153 14.7101 12.3153C12.5092 12.3153 10.2012 14.4415 10.2012 17.0646C10.2012 19.6877 12.5094 21.8141 14.7101 21.8141C16.9109 21.8141 18.0605 20.8121 18.8619 19.3352H28.426V11.947H28.4397L50.2951 4.96614Z" fill="white"/>
</mask>
<g mask="url(#mask0_76_1300)">
<path d="M77 0H0V64H77V0Z" fill="url(#paint0_linear_76_1300)"/>
</g>
<defs>
<linearGradient id="paint0_linear_76_1300" x1="38.5" y1="0.448" x2="38.5" y2="64" gradientUnits="userSpaceOnUse">
<stop stop-color="#00DA63"/>
<stop offset="1" stop-color="#00E5FF"/>
</linearGradient>
</defs>
</svg>
