<svg width="36" height="24" viewBox="0 0 36 24" fill="none" xmlns="http://www.w3.org/2000/svg">
<path fill-rule="evenodd" clip-rule="evenodd" d="M0 5C0 2.23858 2.23858 0 5 0H30.0749C32.8364 0 35.0749 2.23858 35.0749 5V19C35.0749 21.7614 32.8364 24 30.0749 24H5C2.23858 24 0 21.7614 0 19V5Z" fill="#199D00"/>
<path fill-rule="evenodd" clip-rule="evenodd" d="M8.83712 6.80155C8.80058 7.36405 8.74578 8.34843 9.21618 8.45155C9.77793 8.5078 9.46737 7.47655 9.67289 7.28905C9.70942 7.1953 9.77793 7.1953 9.7825 7.31249V8.18905C9.7825 8.4703 9.96518 8.55468 10.1022 8.61093C10.2483 8.60155 10.3488 8.61093 10.4036 8.75155L10.4767 10.2656C10.4767 10.2656 10.8146 10.3687 10.8329 9.41718C10.8466 8.85468 10.7233 8.39062 10.7964 8.2828C10.7964 8.17499 10.9334 8.1703 11.0247 8.22187C11.1709 8.32499 11.2348 8.45624 11.4632 8.40937C11.8103 8.30624 12.0204 8.1328 12.0249 7.86093C12.0181 7.59375 11.9639 7.33008 11.8651 7.0828C11.8833 7.03593 11.8011 6.90937 11.8194 6.86249C11.8788 6.96562 11.9747 6.95624 11.9929 6.86249C11.9336 6.66562 11.8422 6.47343 11.6961 6.39374C11.5728 6.28124 11.3901 6.29999 11.3307 6.53437C11.2942 6.80155 11.4221 7.11562 11.6093 7.37812C11.6504 7.47655 11.7052 7.6453 11.6824 7.7953C11.5819 7.85624 11.4814 7.82812 11.3947 7.73905C11.3947 7.73905 11.1206 7.52812 11.1206 7.47655C11.1937 6.99843 11.1343 6.94218 11.0932 6.80624C11.0658 6.62343 10.9791 6.56249 10.9106 6.44062C10.8421 6.36562 10.7507 6.36562 10.705 6.44062C10.5817 6.65624 10.6411 7.1203 10.7279 7.33124C10.7918 7.52343 10.8877 7.6453 10.8421 7.6453C10.8055 7.75312 10.7279 7.72499 10.6685 7.59843C10.6017 7.33208 10.5694 7.05783 10.5726 6.7828C10.5498 6.56718 10.5224 6.1078 10.3808 5.98593C10.2986 5.87343 10.1753 5.92968 10.1296 6.0328C10.1175 6.24221 10.1221 6.45228 10.1433 6.66093C10.2346 7.0078 10.2666 7.31718 10.3123 7.66874C10.326 8.14218 10.0474 7.87499 10.0611 7.63593C10.121 7.33539 10.1163 7.02505 10.0474 6.72655C10.0017 6.60468 9.95148 6.57655 9.8373 6.5953C9.75053 6.5953 9.52674 6.84374 9.4628 7.26562C9.4628 7.26562 9.408 7.48124 9.38516 7.67343C9.35319 7.88905 9.21618 8.04843 9.11571 7.6453C9.0335 7.34999 8.9787 6.6328 8.84168 6.80155H8.83712Z" fill="white"/>
<path fill-rule="evenodd" clip-rule="evenodd" d="M10.3672 9.10308L8.90576 9.82495C8.91946 9.48276 9.59539 8.8687 10.0612 8.86401C10.3581 8.8687 10.285 8.9812 10.3627 9.10308H10.3672Z" fill="white"/>
<path fill-rule="evenodd" clip-rule="evenodd" d="M10.1068 9.5719C9.33949 11.611 11.9107 11.8969 12.1985 9.65628C12.2259 9.56253 12.3355 9.47346 12.3537 9.62346C12.2944 11.6532 10.3625 11.7891 10.0337 11.1516C9.95633 10.9322 9.91766 10.7005 9.9195 10.4672C9.87383 10.0688 9.66832 10.2235 9.63635 10.6172C9.60438 10.8375 9.61351 10.8985 9.61351 11.1094C9.71399 12.7125 12.203 12.0235 12.6095 10.7016C12.8241 9.97034 12.573 9.43128 12.6871 9.43128C12.9338 9.70315 13.2809 9.46878 13.3585 9.37503C13.3905 9.32815 13.4727 9.29534 13.5275 9.35628C13.7193 9.4969 14.0573 9.43128 14.1303 9.18284C14.1714 8.9344 14.2034 8.68128 14.2125 8.42346C14.0527 8.47034 13.9385 8.50315 13.9248 8.57346L13.8928 8.78909C13.8791 8.8594 13.7467 8.8594 13.7376 8.77034C13.6782 8.48909 13.4316 8.45628 13.2809 8.88753C13.1849 8.9719 13.0023 8.99065 12.984 8.86409C13.0068 8.57346 12.8927 8.53596 12.6643 8.6719L12.4451 6.97503C12.5364 6.97503 12.6278 7.04534 12.7145 6.93284C12.6232 6.62815 12.4177 6.0094 12.3035 5.96253C12.2533 5.8969 12.2076 5.93909 12.1345 5.95784C12.0158 5.99534 11.9062 6.09846 11.9427 6.30471C12.0797 7.18596 12.1711 7.85628 12.3126 8.74221C12.3355 8.84065 12.2533 8.97659 12.1437 8.96253C11.961 8.83596 11.9153 8.57815 11.5956 8.58753C11.3673 8.58753 11.1115 8.84534 11.0795 9.08909C11.0384 9.28596 11.0247 9.4969 11.0795 9.66565C11.2394 9.86253 11.4312 9.84378 11.6002 9.80159C11.7372 9.74065 11.8514 9.60003 11.9016 9.63284C11.9336 9.67503 11.9062 10.1438 11.2485 10.5C10.8512 10.6875 10.5315 10.725 10.3625 10.3922C10.2575 10.1813 10.3716 9.38909 10.1068 9.5719Z" fill="white"/>
<path fill-rule="evenodd" clip-rule="evenodd" d="M13.3817 7.50003C13.5324 7.44378 14.2631 6.58128 14.2631 6.58128L14.1535 6.48753C14.1124 6.45471 14.117 6.41721 14.1535 6.3844C14.3362 6.2719 14.2768 6.03753 14.1855 5.92503C14.1234 5.894 14.0552 5.87827 13.9863 5.87908C13.9173 5.8799 13.8494 5.89723 13.7881 5.92971C13.6602 6.05628 13.6328 6.25784 13.7333 6.37971C13.8292 6.42659 13.9251 6.52971 13.8612 6.58596C13.5598 6.91409 12.7423 7.48128 12.8382 7.50003C12.8564 7.52815 13.3634 7.52815 13.3771 7.50003H13.3817ZM8.95162 10.5469C8.6776 10.9969 8.65476 11.6672 8.80548 11.8688C8.88768 11.9625 9.02013 12.0047 9.11603 11.9719C9.28958 11.8969 9.36722 11.536 9.32612 11.4094C9.26675 11.3157 9.22108 11.3016 9.1617 11.3766C9.04296 11.6297 8.99272 11.4563 8.97902 11.3157C8.96593 11.0775 8.97818 10.8386 9.01556 10.6032C9.04753 10.4063 9.01556 10.4625 8.95162 10.5469ZM20.6935 9.82971C20.4286 9.23909 20.0587 8.65784 19.9445 8.43753C19.5886 7.86005 19.2108 7.29711 18.8119 6.75003C18.5287 6.40315 19.2777 6.89534 18.7205 6.20159L18.3141 5.85003C18.2227 5.7844 18.0035 5.66253 17.967 5.8594C17.9487 6.03753 17.9578 6.13128 17.9852 6.27659C18.0081 6.37034 18.1451 6.5344 18.2136 6.62815C19.1499 7.90102 19.9723 9.2581 20.6707 10.6828C20.7894 10.6219 20.762 9.92815 20.6935 9.82971Z" fill="white"/>
<path fill-rule="evenodd" clip-rule="evenodd" d="M19.5288 11.7891C19.474 11.85 19.6567 12.1078 19.8942 12.1078C20.287 12.061 20.6341 11.836 20.9537 11.236C21.0837 11.0364 21.1665 10.8085 21.1958 10.5703C21.2345 9.43241 21.1456 8.29369 20.9309 7.17659C20.9172 7.08284 20.9309 6.97034 20.94 6.94222C20.9675 6.9094 21.0542 6.94222 21.0999 6.86253C21.1684 6.79222 20.9172 6.20628 20.7802 5.98597C20.7345 5.88284 20.7117 5.81722 20.6295 5.99534C20.5303 6.19189 20.483 6.4117 20.4925 6.63284C20.6797 7.96878 20.7391 9.13597 20.8578 10.4719C20.8715 10.6032 20.8533 10.7907 20.7665 10.8657C20.4219 11.2595 20.0001 11.5741 19.5288 11.7891ZM24.8494 11.7844C24.5663 11.9532 24.5663 12.1453 24.7946 12.15C25.1874 12.1032 25.6532 12.0703 25.9729 11.5735C26.0859 11.3394 26.1511 11.0842 26.1648 10.8235C26.2222 9.70306 26.1502 8.5796 25.9501 7.47659C25.941 7.38284 25.8999 7.16253 25.9136 7.1344C25.941 7.06878 26.0688 7.13909 26.1145 7.06409C26.1785 6.99378 25.7811 6.46878 25.6395 6.24378C25.5939 6.14065 25.5756 6.07503 25.4888 6.25315C25.3968 6.45151 25.3681 6.67457 25.4066 6.89065C25.6167 8.34378 25.772 9.43128 25.804 10.7157C25.7857 10.8375 25.7811 10.9032 25.7263 11.0578C25.603 11.2172 25.466 11.4235 25.3381 11.5219C25.2102 11.6157 24.9362 11.7094 24.8494 11.7844Z" fill="white"/>
<path fill-rule="evenodd" clip-rule="evenodd" d="M25.0593 10.486C25.0593 10.1438 25.0639 9.85316 25.0547 9.59534C25.0518 9.377 25.0052 9.16161 24.9177 8.96253C24.8355 8.77034 24.8858 8.61566 24.8447 8.40941C24.8081 8.20316 24.8173 7.89378 24.7624 7.65472C24.7442 7.56097 24.6985 7.25628 24.7122 7.22347C24.735 7.15784 24.8218 7.22347 24.8675 7.14847C24.9314 7.07816 24.6391 6.30472 24.493 6.08441C24.4428 5.98597 24.3423 6.01878 24.2281 6.17816C24.1139 6.28597 24.155 6.52503 24.2007 6.75472C24.4793 8.26878 24.6939 9.64222 24.6483 11.0813C24.63 11.2032 25.0593 10.7157 25.0593 10.486ZM22.9722 8.61097C22.794 8.60159 22.4241 8.25003 22.3145 8.04847C22.2966 7.99921 22.2889 7.94662 22.2921 7.89413C22.2952 7.84164 22.3091 7.79041 22.3328 7.74378C22.4013 7.69691 22.5018 7.65003 22.5794 7.69691C22.5794 7.69691 22.657 7.80941 22.6433 7.82347C22.7347 7.87034 22.7803 7.84691 22.7895 7.80472C22.794 7.73441 22.7621 7.69222 22.7621 7.61722C22.8032 7.40159 23.0361 7.36878 23.1274 7.50472C23.1914 7.58909 23.2188 7.76253 23.2233 7.87972C23.2233 7.94066 23.132 7.87034 23.0726 7.87972C23.0224 7.89847 23.0087 7.96409 23.0041 8.02034C22.995 8.17503 22.9767 8.42347 22.9722 8.60628V8.61097ZM19.693 10.861C19.7387 10.4016 19.6747 9.58128 19.6702 9.30941C19.6458 8.6102 19.5894 7.91256 19.5012 7.21878C19.4464 6.82503 19.6565 7.26097 19.6291 7.03128C19.5606 6.64222 19.3505 6.37503 19.0993 6.02347C19.0217 5.90628 19.0217 5.88284 18.8983 6.05159C18.7613 6.36566 18.8801 6.58597 18.9166 6.83441C19.0947 7.64066 19.1998 8.38128 19.25 9.11722C19.3026 9.88171 19.3087 10.6488 19.2683 11.4141C19.4053 11.4188 19.6154 11.1938 19.693 10.861Z" fill="white"/>
<path fill-rule="evenodd" clip-rule="evenodd" d="M25.6668 10.125C25.3517 9.58123 24.8813 8.99998 24.7534 8.77967C24.3299 8.17267 23.8851 7.58166 23.4198 7.0078C23.0316 6.58592 23.6025 6.93748 23.3467 6.60936C23.1321 6.3703 23.0727 6.29061 22.8855 6.1453C22.7941 6.08436 22.7393 5.96717 22.7028 6.16873C22.6882 6.34332 22.6852 6.51872 22.6936 6.69373C22.6936 6.77342 22.7758 6.92811 22.8489 7.02186C23.7943 8.21717 24.831 9.43592 25.6622 10.9687C25.781 10.9078 25.7399 10.2187 25.6622 10.125H25.6668Z" fill="white"/>
<path fill-rule="evenodd" clip-rule="evenodd" d="M11.445 9.1265C11.4221 9.16869 11.3719 9.22025 11.3902 9.27182C11.4221 9.31869 11.4541 9.33275 11.509 9.33275C11.5593 9.33275 11.6324 9.34682 11.6461 9.31869C11.6735 9.28588 11.6918 9.22494 11.6735 9.164C11.6187 9.02338 11.4724 9.07963 11.445 9.1265Z" fill="#1BA400"/>
<path fill-rule="evenodd" clip-rule="evenodd" d="M22.0223 16.9922C22.4425 17.011 22.7165 17.0157 23.0864 17.0579L23.5249 17.011C24.009 16.9641 24.0273 17.7188 24.0273 17.7188C24.0273 18.1641 23.8583 18.1875 23.6436 18.2344C23.5203 18.2532 23.4609 18.1594 23.3924 18.0657C23.2892 18.0996 23.1791 18.1061 23.0727 18.0844C22.8946 18.075 22.7211 18.075 22.5475 18.061C22.3649 18.0469 22.2644 18.0844 22.0771 18.0657C22.0406 18.1266 21.9858 18.211 21.8762 18.1875C21.7848 18.1735 21.6707 17.9063 21.7026 17.6954C21.7711 17.5454 21.7483 17.5969 21.7483 17.5313C20.0311 17.4844 18.3002 17.4047 16.6195 17.4282C15.3042 17.4329 14.0072 17.4891 12.7055 17.5454C12.0114 17.536 11.4816 17.4235 11.1162 16.875C11.1527 16.875 12.8882 16.9735 13.3952 16.9407C14.3314 16.9313 15.19 16.8516 16.1445 16.8235C18.0262 16.8563 19.8941 16.8563 21.7757 16.9922C21.593 16.8657 21.593 16.5704 21.867 16.4954C21.8899 16.4766 21.9036 16.6407 21.9447 16.636C22.1685 16.6219 22.068 16.9313 22.0223 16.9922ZM14.4593 6.34223C14.1761 7.17661 14.6237 8.09536 14.9343 8.00629C15.1626 8.10004 15.2996 7.65942 15.391 7.18129C15.4595 7.04536 15.5051 7.03129 15.5371 7.10161C15.528 7.73911 15.5828 7.88442 15.7426 8.07661C16.0989 8.35786 16.3957 8.11411 16.4186 8.09067L16.6926 7.80473C16.7565 7.73442 16.8387 7.73442 16.9255 7.79067C17.0123 7.87036 16.9986 8.00629 17.1813 8.10004C17.3365 8.16567 17.6608 8.11879 17.7384 7.98286C17.8389 7.80004 17.8663 7.73911 17.912 7.67348C17.9851 7.57504 18.1084 7.61723 18.1084 7.65004C18.0947 7.70629 18.0216 7.75786 18.0718 7.86098C18.1632 7.92661 18.1814 7.88442 18.2317 7.87036C18.4144 7.77661 18.5514 7.37348 18.5514 7.37348C18.5559 7.22348 18.4737 7.23286 18.4189 7.27036L18.2773 7.36879C18.186 7.38286 18.017 7.44379 17.9302 7.30786C17.8435 7.14848 17.8435 6.91879 17.7795 6.75473C17.7795 6.74536 17.6608 6.49692 17.7704 6.48286C17.8252 6.49223 17.9394 6.52504 17.9577 6.42661C18.0125 6.32817 17.8389 6.05161 17.7156 5.91098C17.6106 5.79379 17.4644 5.77973 17.3228 5.90161C17.2224 5.99536 17.2361 6.09848 17.2178 6.19692C17.2005 6.26746 17.1997 6.34122 17.2156 6.41212C17.2315 6.48302 17.2635 6.54903 17.3091 6.60473C17.4096 6.80161 17.5877 7.05942 17.5283 7.42504C17.5283 7.42504 17.4233 7.59379 17.2406 7.57036C17.163 7.55629 17.0397 7.52348 16.9757 7.01723C16.9255 6.64223 16.9849 6.10786 16.8296 5.85942C16.7702 5.70473 16.7291 5.55942 16.5921 5.81723C16.5556 5.92036 16.3957 6.07504 16.5099 6.38911C16.6179 6.67212 16.6495 6.97983 16.6012 7.27973C16.5327 7.38286 16.519 7.41567 16.4323 7.51411C16.3135 7.65473 16.1811 7.61723 16.0806 7.56567C15.9893 7.50473 15.9162 7.47192 15.8705 7.26098C15.8796 6.93286 15.8979 6.39379 15.8385 6.28129C15.7518 6.10317 15.6102 6.16879 15.5508 6.22504C15.2791 6.53481 15.0972 6.91635 15.0256 7.32661C14.9434 7.59848 14.8566 7.51879 14.7973 7.41098C14.6511 7.27036 14.6374 6.15942 14.4593 6.34223Z" fill="white"/>
<path fill-rule="evenodd" clip-rule="evenodd" d="M15.318 8.16095C15.4504 8.0672 15.3911 8.00158 15.5829 8.19845C15.8305 8.64807 15.9742 9.15002 16.0031 9.66564C15.9939 9.78751 16.0761 9.86251 16.1172 9.83439C16.1355 9.55314 16.8069 9.15939 17.4234 9.10314C17.5148 9.0797 17.4691 8.89689 17.4828 8.80314C17.4463 8.45158 17.6746 8.13283 17.9943 8.10939C18.4327 8.17501 18.5789 8.41408 18.588 8.77501C18.5378 9.47814 17.8253 9.59533 17.428 9.65158C17.3686 9.67501 17.3412 9.70314 17.428 9.73595L19.0995 9.74533L19.1863 9.7922C19.1954 9.83908 19.1589 9.80158 19.095 9.91408C19.003 10.0799 18.9455 10.2634 18.926 10.4531C18.4282 10.6219 17.9121 10.6875 17.3914 10.7578C17.2088 10.8516 17.1174 10.9781 17.154 11.1188C17.2179 11.2735 17.6198 11.4328 17.6198 11.4375C17.6974 11.4844 17.7842 11.6016 17.597 11.8406C16.784 11.8031 16.1492 11.4469 15.93 10.9453C15.8661 10.8938 15.793 10.9453 15.7473 11.011C15.4276 11.4328 15.1171 11.8078 14.5736 12.0141C14.2539 12.0985 13.9205 11.9625 13.7652 11.7469C13.6602 11.6203 13.6647 11.4844 13.6282 11.4563C13.4501 11.536 11.943 12.1922 12.1348 11.8828C12.5001 11.4844 13.1395 11.1844 13.6967 10.7906C13.7378 10.6547 13.8109 10.2047 14.0301 10.0594C14.0438 10.0594 13.9981 10.3219 14.0027 10.4344C14.0027 10.5281 13.9936 10.561 14.0118 10.5375C14.0529 10.5141 14.7289 9.96564 14.7882 9.79689C14.8522 9.70314 14.8019 9.45939 14.8019 9.45001C14.6741 9.11251 14.4959 9.08439 14.432 8.91564C14.3726 8.69533 14.4 8.4422 14.5233 8.3672C14.6329 8.26876 14.7608 8.27814 14.8841 8.39064C15.0211 8.5172 15.1399 8.76564 15.1764 8.94845C15.1536 9.01876 14.9937 8.90158 14.9481 8.93439C15.036 9.03807 15.0944 9.16455 15.1171 9.30001C15.2084 9.68439 15.181 9.83439 15.0897 10.0828C14.7882 10.7344 14.4046 10.9266 14.0666 11.1703C14.0575 11.1703 14.0529 11.3344 14.1762 11.4235C14.2219 11.4703 14.4 11.4938 14.6055 11.4235C15.0446 11.1732 15.3996 10.7924 15.624 10.3313C15.6628 9.98034 15.6254 9.62494 15.5144 9.29064C15.3819 8.97658 15.2267 8.53126 15.2267 8.52189C15.2221 8.32501 15.2358 8.25939 15.318 8.16095ZM10.9428 6.35158C11.1346 6.44533 11.5 6.40314 11.4817 6.08439L11.4725 5.93908C11.436 5.84533 11.3264 5.86876 11.3036 5.96251C11.2944 5.99533 11.3173 6.04689 11.2899 6.06095C11.2716 6.0797 11.2122 6.07033 11.2122 5.98126C11.2122 5.95314 11.194 5.92501 11.1803 5.90626C11.1711 5.89689 11.162 5.89689 11.1392 5.89689C11.1118 5.89689 11.1118 5.90158 11.0981 5.92501C11.0935 5.94845 11.0844 5.97189 11.0844 6.00001C11.0844 6.03283 11.0661 6.0422 11.0478 6.04689C11.0204 6.04689 11.025 6.04689 11.0021 6.03751C10.993 6.02345 10.9793 6.01876 10.9793 5.99064L10.9656 5.91564C10.9565 5.90158 10.9382 5.8922 10.9199 5.88751C10.8149 5.88751 10.8058 6.01408 10.8149 6.06095C10.8058 6.07033 10.8012 6.29064 10.9428 6.35158Z" fill="white"/>
<path fill-rule="evenodd" clip-rule="evenodd" d="M16.5828 8.79846C16.7746 8.89221 17.2359 8.84065 17.1217 8.53596L17.1125 8.38596C17.0714 8.29221 16.9664 8.31565 16.9436 8.41408C16.9344 8.44221 16.9573 8.49377 16.9253 8.50783C16.9116 8.52658 16.8477 8.51721 16.8522 8.43283C16.8522 8.40471 16.834 8.3719 16.8203 8.35315C16.8066 8.34846 16.802 8.34377 16.7746 8.34377C16.7517 8.34377 16.7517 8.35315 16.738 8.37658C16.7289 8.40002 16.7243 8.42346 16.7243 8.45158C16.7198 8.47971 16.7061 8.48908 16.6832 8.49846C16.6604 8.49846 16.665 8.49846 16.6467 8.4844C16.633 8.47033 16.6193 8.46565 16.6193 8.44221L16.6056 8.36721C16.5965 8.35315 16.5782 8.34377 16.5599 8.33908C16.4549 8.33908 16.4458 8.46096 16.4503 8.50783C16.4458 8.51721 16.4412 8.74221 16.5873 8.79846H16.5828ZM19.871 7.78596C20.0629 7.87971 20.4237 7.83752 20.41 7.52346L20.4008 7.37346C20.3597 7.27971 20.2547 7.30315 20.2318 7.3969C20.2227 7.42971 20.2455 7.48127 20.2136 7.50002C20.1999 7.51408 20.1359 7.50471 20.1405 7.41565C20.1405 7.38752 20.1222 7.3594 20.1085 7.34065C20.0948 7.33127 20.0903 7.33127 20.0629 7.33127C20.04 7.33127 20.04 7.34065 20.0263 7.36408L20.0126 7.4344C20.0081 7.46721 19.9944 7.48127 19.9715 7.48127C19.9487 7.48127 19.9532 7.48127 19.935 7.4719C19.9213 7.45783 19.9076 7.45315 19.9076 7.42971C19.9076 7.40627 19.903 7.36877 19.8939 7.35002C19.8847 7.33596 19.8665 7.33127 19.8482 7.32658C19.7432 7.32658 19.734 7.44846 19.7386 7.49533C19.734 7.50471 19.7295 7.72502 19.8756 7.78596H19.871ZM21.5745 10.3313C21.2412 10.7203 21.3873 11.3625 21.4649 11.5031C21.5746 11.7281 21.6613 11.8735 21.876 11.986C22.0724 12.1313 22.2276 12.0422 22.3098 11.9391C22.5062 11.7281 22.5108 11.1891 22.6021 11.086C22.6661 10.8891 22.8305 10.9219 22.9081 11.011C22.9808 11.1168 23.0781 11.2022 23.1913 11.2594C23.374 11.4235 23.5932 11.4563 23.8124 11.3063C23.9585 11.2172 24.0545 11.1094 24.1412 10.8891C24.2326 10.6266 24.1869 9.40783 24.1641 8.68596L23.9723 7.67815C23.9723 7.66877 23.9494 7.20002 23.9266 7.09221C23.9266 7.04533 23.9129 7.03127 23.9586 7.03596C24.0088 7.08283 24.0134 7.08283 24.0499 7.0969C24.0956 7.10627 24.1412 7.01721 24.1093 6.94221L23.6526 6.07033C23.616 6.03283 23.5658 5.99533 23.5064 6.07971C23.4714 6.11226 23.4435 6.15207 23.4246 6.19652C23.4057 6.24097 23.3962 6.28903 23.3968 6.33752C23.4105 6.54377 23.4425 6.75471 23.4562 6.96096L23.6389 8.02033C23.6982 8.77033 23.7119 9.38908 23.7713 10.1438C23.7622 10.4625 23.6663 10.7391 23.5749 10.7813C23.5749 10.7813 23.4379 10.861 23.3466 10.7719C23.2781 10.7438 23.0086 10.3078 23.0086 10.3078C22.8716 10.1813 22.7803 10.2141 22.6843 10.3078C22.4103 10.5797 22.2916 11.0766 22.1043 11.4235C22.0587 11.5031 21.9216 11.5641 21.7755 11.4188C21.401 10.8891 21.6202 10.1391 21.5745 10.3313ZM19.9578 5.93908C20.1314 6.0094 20.2501 6.37033 20.2136 6.54846C20.177 6.7594 20.0857 6.99377 20.0218 6.96565C19.9487 6.93752 20.0674 6.75002 19.9989 6.55315C19.9624 6.4219 19.7249 6.18752 19.7523 6.1219C19.7066 5.97658 19.8528 5.91096 19.9578 5.9344V5.93908Z" fill="white"/>
<path fill-rule="evenodd" clip-rule="evenodd" d="M22.1317 10.5469C22.1637 10.1156 22.1043 9.85313 22.0952 9.60001C22.0861 9.34688 21.8166 7.41563 21.7618 7.22813C21.6933 6.8625 22.0221 7.18126 21.9856 6.96563C21.8714 6.70313 21.5928 6.31407 21.506 6.08438C21.4512 5.99063 21.4741 5.89688 21.3553 6.06094C21.2531 6.34859 21.2171 6.65664 21.2503 6.96094C21.5334 8.475 21.8212 9.73126 21.7755 11.1703C21.9125 11.1703 22.0632 10.8563 22.1317 10.5469ZM25.0729 6.54844C25.2328 6.62813 25.3241 7.07813 25.3058 7.20469C25.2739 7.43907 25.1917 7.69219 25.1323 7.65938C25.0638 7.63125 25.146 7.3125 25.114 7.21407C25.0775 7.07344 24.8628 6.82032 24.8857 6.74532C24.84 6.58594 24.977 6.52032 25.0729 6.54844ZM13.395 9.73126C13.5457 9.79219 13.637 10.1203 13.6233 10.2141C13.5868 10.3875 13.5091 10.575 13.4498 10.5469C13.3904 10.5281 13.4635 10.2938 13.4361 10.2188C13.4224 10.0453 13.2123 9.95157 13.2168 9.87657C13.1803 9.73594 13.3082 9.71251 13.3995 9.73126H13.395Z" fill="white"/>
<path fill-rule="evenodd" clip-rule="evenodd" d="M17.0312 10.2282C17.2232 10.2375 17.3192 10.3969 17.1409 10.4625C16.9581 10.5235 16.789 10.575 16.7844 10.8375C16.853 11.2125 16.693 11.0813 16.6016 11.0344C16.4919 10.95 16.1811 10.7532 16.1354 10.3313C16.1309 10.2329 16.2086 10.1438 16.332 10.1438C16.5148 10.1954 16.789 10.2 17.0312 10.2282Z" fill="#1B9D00"/>
<path fill-rule="evenodd" clip-rule="evenodd" d="M9.38065 5.83125C9.59987 5.89687 9.61357 6.23437 9.59987 6.33281C9.5679 6.51094 9.49026 6.70312 9.43546 6.67969C9.37152 6.65625 9.43546 6.4125 9.40349 6.3375C9.37152 6.23437 9.18427 6.0375 9.20254 5.98125C9.16143 5.86406 9.29388 5.80781 9.38065 5.83125ZM13.7605 7.40625C13.5869 7.5 13.523 7.78125 13.628 7.95C13.7285 8.09062 13.8838 8.03906 13.902 8.03906C14.071 8.05781 14.1715 7.71562 14.1715 7.71562C14.1715 7.71562 14.1761 7.62187 13.9797 7.80469C13.8929 7.81875 13.8883 7.78594 13.8655 7.73906C13.8446 7.64982 13.8526 7.55601 13.8883 7.47187C13.9203 7.3875 13.8564 7.35 13.7605 7.40625ZM15.0392 5.7C14.9479 5.76093 14.7789 5.94375 14.7743 6.15C14.7698 6.26718 14.7469 6.26718 14.82 6.3375C14.8794 6.42187 14.9296 6.41719 15.0392 6.35625C15.0665 6.3386 15.09 6.31532 15.1081 6.28789C15.1261 6.26045 15.1385 6.22946 15.1443 6.19687C15.1717 6.06562 15.0073 6.2625 14.989 6.1125C14.9525 5.97187 15.0575 5.91562 15.158 5.78437C15.158 5.69062 15.158 5.62968 15.0347 5.7H15.0392ZM16.0622 5.8875C16.022 6.05819 15.9975 6.2324 15.9892 6.40781C15.9618 6.53906 16.1262 6.59531 16.1947 6.42656C16.3043 6.12187 16.3043 5.99062 16.3134 5.86406C16.2815 5.6625 16.149 5.66718 16.0622 5.8875ZM22.5475 9.27656C22.5657 9.25312 23.4609 8.60156 23.4609 8.60156C23.5522 8.56875 23.5294 8.93906 23.4883 8.93437C23.2107 9.20897 22.8914 9.43537 22.5429 9.60469C22.4972 9.6375 22.4561 9.35625 22.5429 9.27656H22.5475ZM23.3558 9.26719C23.5157 9.34687 23.5796 9.82031 23.5613 9.94687C23.5613 10.2 23.4106 10.3969 23.3467 10.3687C23.2828 10.3359 23.3558 10.0547 23.3239 9.95625C23.2873 9.81562 23.1549 9.55781 23.1777 9.48281C23.132 9.32344 23.2599 9.23906 23.3604 9.26719H23.3558ZM18.058 11.3016C18.1321 11.2128 18.2183 11.1355 18.3138 11.0719C18.4051 11.025 18.4874 11.1094 18.4828 11.1047C18.4965 11.1984 18.428 11.2781 18.4508 11.4C18.4691 11.4469 18.4828 11.5031 18.5696 11.4844C18.7111 11.3672 18.8436 11.3578 18.9806 11.3531C19.0948 11.3578 19.0993 11.55 19.0263 11.55C18.7659 11.6062 18.6518 11.6812 18.4645 11.7516C18.3732 11.8078 18.3001 11.7375 18.3001 11.7328C18.3001 11.7281 18.2499 11.6812 18.2818 11.5594C18.291 11.4656 18.2544 11.4094 18.1722 11.4187C18.1174 11.4562 18.0626 11.475 18.0352 11.4047C18.0215 11.3578 18.0169 11.3297 18.058 11.3016ZM24.2966 11.5547C24.3332 11.6016 24.3606 11.6484 24.2921 11.7328L24.1231 11.8828C24.0957 11.9297 24.0774 12.0141 24.1688 12.0375C24.3332 12.0844 24.7168 11.8266 24.7168 11.8219C24.7807 11.775 24.7625 11.6812 24.7533 11.6812C24.7168 11.6391 24.6346 11.6672 24.5798 11.6578C24.5524 11.6578 24.4656 11.6484 24.5067 11.5641C24.5374 11.5226 24.562 11.4768 24.5798 11.4281C24.6026 11.3719 24.5798 11.3344 24.4885 11.3016C24.3925 11.2828 24.3514 11.2922 24.2464 11.3016C24.1916 11.3109 24.1733 11.3391 24.1596 11.4094C24.1642 11.5172 24.2281 11.5125 24.2966 11.55V11.5547Z" fill="white"/>
<path fill-rule="evenodd" clip-rule="evenodd" d="M18.0903 8.89222C18.0674 8.9391 17.9852 8.9391 17.9076 8.89222C17.8299 8.84535 17.7843 8.77035 17.8117 8.72816C17.8391 8.68597 17.9167 8.68597 17.9943 8.72816C18.072 8.77035 18.1131 8.85003 18.0903 8.89222ZM14.0256 6.37972C13.9799 6.39378 13.916 6.3516 13.8886 6.28597C13.8612 6.22035 13.8749 6.1641 13.9205 6.15003C13.9662 6.13597 14.0256 6.18285 14.0576 6.24378C14.0895 6.30472 14.0713 6.37035 14.021 6.38441L14.0256 6.37972Z" fill="#259F00"/>
<path fill-rule="evenodd" clip-rule="evenodd" d="M22.068 17.5781C22.4976 17.5969 22.8998 17.5781 23.3248 17.6016C23.4025 17.6719 23.3477 17.8359 23.2974 17.8266L22.9409 17.8125C22.9363 17.6719 22.589 17.6953 22.5981 17.8172C22.4107 17.8406 22.2416 17.8125 22.0497 17.8031C21.9948 17.7328 22.004 17.6062 22.068 17.5781Z" fill="#209000"/>
</svg>
