<svg width="202" height="8" viewBox="0 0 202 8" fill="none" xmlns="http://www.w3.org/2000/svg">
<path d="M0 7.86704V6.52632H1.0034V1.47368H0V0.132964H3.70145V1.47368H2.69804V6.52632H3.70145V7.86704H0Z" fill="#F1F1F1"/>
<path d="M7.48808 4.21053L6.7411 2.65928H6.70765V7.86704H5.11335V0.132964H6.96408L9.09352 3.78947L9.8405 5.34072H9.87395V0.132964H11.4682V7.86704H9.61752L7.48808 4.21053Z" fill="#F1F1F1"/>
<path d="M16.4254 1.62881V7.86704H14.7308V1.62881H12.6236V0.132964H18.5326V1.62881H16.4254Z" fill="#F1F1F1"/>
<path d="M19.6919 7.86704V0.132964H24.9876V1.62881H21.3865V3.2133H24.4748V4.69806H21.3865V6.37119H24.9876V7.86704H19.6919Z" fill="#F1F1F1"/>
<path d="M26.464 7.86704V0.132964H28.1586V6.37119H31.1242V7.86704H26.464Z" fill="#F1F1F1"/>
<path d="M32.376 7.86704V0.132964H34.0706V6.37119H37.0362V7.86704H32.376Z" fill="#F1F1F1"/>
<path d="M37.9869 7.86704V6.52632H38.9903V1.47368H37.9869V0.132964H41.6884V1.47368H40.685V6.52632H41.6884V7.86704H37.9869Z" fill="#F1F1F1"/>
<path d="M48.0393 6.63712H47.9835C47.9241 7.02862 47.7234 7.35365 47.3815 7.61219C47.0396 7.87073 46.575 8 45.9879 8C45.5419 8 45.1257 7.91505 44.7392 7.74515C44.3527 7.57525 44.0145 7.3241 43.7246 6.99169C43.4348 6.65928 43.2081 6.24561 43.0445 5.75069C42.881 5.25577 42.7993 4.68329 42.7993 4.03324C42.7993 3.38319 42.8847 2.80702 43.0557 2.30471C43.2266 1.8024 43.4645 1.38135 43.7692 1.04155C44.0814 0.701754 44.453 0.443213 44.8841 0.265928C45.3152 0.0886426 45.7946 0 46.3223 0C47.021 0 47.623 0.151431 48.1285 0.454294C48.6339 0.749769 49.0315 1.19668 49.3214 1.79501L47.9389 2.58172C47.82 2.27886 47.6342 2.02401 47.3815 1.81717C47.1288 1.60295 46.7757 1.49584 46.3223 1.49584C45.7946 1.49584 45.3747 1.64728 45.0625 1.95014C44.7503 2.253 44.5942 2.72946 44.5942 3.3795V4.6205C44.5942 5.26316 44.7503 5.73961 45.0625 6.04986C45.3747 6.35272 45.7946 6.50416 46.3223 6.50416C46.5304 6.50416 46.7274 6.48199 46.9132 6.43767C47.099 6.38596 47.2626 6.3121 47.4038 6.21607C47.545 6.11265 47.6528 5.99077 47.7271 5.85042C47.8089 5.71006 47.8497 5.54386 47.8497 5.3518V4.96399H46.4004V3.55679H49.4663V7.86704H48.0393V6.63712Z" fill="#F1F1F1"/>
<path d="M51.1136 7.86704V0.132964H56.4093V1.62881H52.8082V3.2133H55.8965V4.69806H52.8082V6.37119H56.4093V7.86704H51.1136Z" fill="#F1F1F1"/>
<path d="M60.2604 4.21053L59.5134 2.65928H59.48V7.86704H57.8857V0.132964H59.7364L61.8659 3.78947L62.6128 5.34072H62.6463V0.132964H64.2406V7.86704H62.3899L60.2604 4.21053Z" fill="#F1F1F1"/>
<path d="M69.1978 1.62881V7.86704H67.5031V1.62881H65.396V0.132964H71.3049V1.62881H69.1978Z" fill="#F1F1F1"/>
<path d="M77.6187 8C76.9349 8 76.3551 7.8855 75.8795 7.65651C75.4038 7.42013 74.9987 7.11727 74.6642 6.74792L75.7791 5.62881C76.3068 6.21976 76.9572 6.51524 77.7302 6.51524C78.1464 6.51524 78.4548 6.43029 78.6555 6.26039C78.8562 6.09049 78.9566 5.86519 78.9566 5.58449C78.9566 5.37027 78.8971 5.19298 78.7782 5.05263C78.6593 4.90489 78.4177 4.80517 78.0535 4.75346L77.2842 4.65374C76.4592 4.55032 75.8534 4.30286 75.4669 3.91136C75.0879 3.51985 74.8983 2.99908 74.8983 2.34903C74.8983 2.00185 74.9652 1.68421 75.099 1.39612C75.2328 1.10803 75.4223 0.860573 75.6676 0.65374C75.9203 0.446907 76.2251 0.288089 76.5818 0.177286C76.946 0.0590952 77.3585 0 77.8194 0C78.4065 0 78.9231 0.092336 79.3691 0.277008C79.815 0.461681 80.1978 0.731302 80.5174 1.08587L79.3914 2.21607C79.2056 2.00185 78.9789 1.82825 78.7113 1.69529C78.4511 1.55494 78.1204 1.48476 77.719 1.48476C77.34 1.48476 77.0575 1.55125 76.8717 1.68421C76.6859 1.81717 76.593 2.00185 76.593 2.23823C76.593 2.50416 76.6636 2.69621 76.8048 2.8144C76.9535 2.93259 77.1913 3.01754 77.5183 3.06925L78.2876 3.19114C79.0903 3.31671 79.685 3.56417 80.0715 3.93352C80.458 4.29548 80.6512 4.81256 80.6512 5.48477C80.6512 5.85411 80.5843 6.19391 80.4505 6.50416C80.3167 6.8144 80.1198 7.08033 79.8596 7.30194C79.6069 7.52355 79.291 7.69714 78.912 7.82272C78.5329 7.94091 78.1018 8 77.6187 8Z" fill="#F1F1F1"/>
<path d="M82.0562 7.86704V0.132964H87.352V1.62881H83.7509V3.2133H86.8391V4.69806H83.7509V6.37119H87.352V7.86704H82.0562Z" fill="#F1F1F1"/>
<path d="M91.9723 8C91.4446 8 90.9689 7.91874 90.5453 7.75623C90.1216 7.58633 89.7611 7.33887 89.4638 7.01385C89.1665 6.68144 88.9361 6.27147 88.7726 5.78393C88.6091 5.28901 88.5273 4.71283 88.5273 4.0554C88.5273 3.40536 88.6091 2.82918 88.7726 2.32687C88.9361 1.81717 89.1665 1.39243 89.4638 1.05263C89.7611 0.705448 90.1216 0.443213 90.5453 0.265928C90.9689 0.0886426 91.4446 0 91.9723 0C92.6933 0 93.2879 0.147738 93.7562 0.443214C94.2244 0.731302 94.5998 1.18929 94.8822 1.81717L93.4217 2.57064C93.3176 2.24561 93.1541 1.98707 92.9311 1.79501C92.7156 1.59557 92.396 1.49584 91.9723 1.49584C91.4743 1.49584 91.073 1.65836 90.7682 1.98338C90.4709 2.30102 90.3223 2.76639 90.3223 3.3795V4.6205C90.3223 5.23361 90.4709 5.70268 90.7682 6.0277C91.073 6.34534 91.4743 6.50416 91.9723 6.50416C92.3886 6.50416 92.7193 6.39335 92.9646 6.17174C93.2173 5.94275 93.4031 5.66944 93.522 5.3518L94.9045 6.14958C94.6146 6.74054 94.2318 7.19852 93.7562 7.52355C93.2879 7.84118 92.6933 8 91.9723 8Z" fill="#F1F1F1"/>
<path d="M97.6958 0.132964V4.87535C97.6958 5.42198 97.8036 5.83195 98.0191 6.10526C98.2347 6.37119 98.5952 6.50416 99.1006 6.50416C99.606 6.50416 99.9665 6.37119 100.182 6.10526C100.398 5.83195 100.505 5.42198 100.505 4.87535V0.132964H102.155V4.69806C102.155 5.26685 102.1 5.76177 101.988 6.18283C101.884 6.59649 101.709 6.93998 101.464 7.2133C101.219 7.47922 100.903 7.67867 100.517 7.81163C100.13 7.93721 99.658 8 99.1006 8C98.5431 8 98.0712 7.93721 97.6847 7.81163C97.2982 7.67867 96.9823 7.47922 96.737 7.2133C96.4917 6.93998 96.3134 6.59649 96.2019 6.18283C96.0978 5.76177 96.0458 5.26685 96.0458 4.69806V0.132964H97.6958Z" fill="#F1F1F1"/>
<path d="M105.526 7.86704H103.831V0.132964H107.522C107.879 0.132964 108.202 0.192059 108.492 0.310249C108.782 0.42844 109.027 0.598338 109.228 0.819945C109.436 1.03416 109.595 1.29271 109.707 1.59557C109.818 1.89843 109.874 2.23453 109.874 2.60388C109.874 3.12835 109.755 3.58633 109.517 3.97784C109.287 4.36934 108.934 4.65374 108.458 4.83103L109.986 7.86704H108.102L106.741 5.03047H105.526V7.86704ZM107.31 3.61219C107.563 3.61219 107.76 3.5494 107.901 3.42382C108.049 3.29086 108.124 3.0988 108.124 2.84765V2.36011C108.124 2.10896 108.049 1.92059 107.901 1.79501C107.76 1.66205 107.563 1.59557 107.31 1.59557H105.526V3.61219H107.31Z" fill="#F1F1F1"/>
<path d="M111.043 7.86704V6.52632H112.046V1.47368H111.043V0.132964H114.744V1.47368H113.741V6.52632H114.744V7.86704H111.043Z" fill="#F1F1F1"/>
<path d="M119.357 1.62881V7.86704H117.662V1.62881H115.555V0.132964H121.464V1.62881H119.357Z" fill="#F1F1F1"/>
<path d="M124.563 7.86704V4.84211L121.898 0.132964H123.793L125.466 3.2133H125.488L127.093 0.132964H128.933L126.268 4.83103V7.86704H124.563Z" fill="#F1F1F1"/>
<path d="M138.351 2.79224H138.318L137.749 3.92244L136.233 6.65928L134.75 3.93352L134.159 2.71468H134.126V7.86704H132.531V0.132964H134.326L136.233 3.75623H136.255L138.139 0.132964H139.945V7.86704H138.351V2.79224Z" fill="#F1F1F1"/>
<path d="M146.46 7.86704L145.903 6.0277H143.305L142.747 7.86704H141.031L143.595 0.132964H145.691L148.222 7.86704H146.46ZM144.62 1.66205H144.565L143.706 4.59834H145.49L144.62 1.66205Z" fill="#F1F1F1"/>
<path d="M151.673 4.21053L150.926 2.65928H150.893V7.86704H149.298V0.132964H151.149L153.278 3.78947L154.025 5.34072H154.059V0.132964H155.653V7.86704H153.802L151.673 4.21053Z" fill="#F1F1F1"/>
<path d="M162.16 7.86704L161.603 6.0277H159.005L158.447 7.86704H156.73L159.295 0.132964H161.391L163.922 7.86704H162.16ZM160.32 1.66205H160.265L159.406 4.59834H161.19L160.32 1.66205Z" fill="#F1F1F1"/>
<path d="M169.6 6.63712H169.544C169.484 7.02862 169.284 7.35365 168.942 7.61219C168.6 7.87073 168.135 8 167.548 8C167.102 8 166.686 7.91505 166.3 7.74515C165.913 7.57525 165.575 7.3241 165.285 6.99169C164.995 6.65928 164.768 6.24561 164.605 5.75069C164.441 5.25577 164.36 4.68329 164.36 4.03324C164.36 3.38319 164.445 2.80702 164.616 2.30471C164.787 1.8024 165.025 1.38135 165.33 1.04155C165.642 0.701754 166.013 0.443213 166.444 0.265928C166.876 0.0886426 167.355 0 167.883 0C168.581 0 169.183 0.151431 169.689 0.454294C170.194 0.749769 170.592 1.19668 170.882 1.79501L169.499 2.58172C169.38 2.27886 169.195 2.02401 168.942 1.81717C168.689 1.60295 168.336 1.49584 167.883 1.49584C167.355 1.49584 166.935 1.64728 166.623 1.95014C166.311 2.253 166.155 2.72946 166.155 3.3795V4.6205C166.155 5.26316 166.311 5.73961 166.623 6.04986C166.935 6.35272 167.355 6.50416 167.883 6.50416C168.091 6.50416 168.288 6.48199 168.474 6.43767C168.659 6.38596 168.823 6.3121 168.964 6.21607C169.105 6.11265 169.213 5.99077 169.287 5.85042C169.369 5.71006 169.41 5.54386 169.41 5.3518V4.96399H167.961V3.55679H171.027V7.86704H169.6V6.63712Z" fill="#F1F1F1"/>
<path d="M178.494 2.79224H178.46L177.892 3.92244L176.375 6.65928L174.893 3.93352L174.302 2.71468H174.268V7.86704H172.674V0.132964H174.469L176.375 3.75623H176.398L178.282 0.132964H180.088V7.86704H178.494V2.79224Z" fill="#F1F1F1"/>
<path d="M181.809 7.86704V0.132964H187.104V1.62881H183.503V3.2133H186.592V4.69806H183.503V6.37119H187.104V7.86704H181.809Z" fill="#F1F1F1"/>
<path d="M190.956 4.21053L190.209 2.65928H190.175V7.86704H188.581V0.132964H190.431L192.561 3.78947L193.308 5.34072H193.341V0.132964H194.936V7.86704H193.085L190.956 4.21053Z" fill="#F1F1F1"/>
<path d="M199.893 1.62881V7.86704H198.198V1.62881H196.091V0.132964H202V1.62881H199.893Z" fill="#F1F1F1"/>
</svg>
