<svg width="24" height="24" viewBox="0 0 24 24" fill="none" xmlns="http://www.w3.org/2000/svg">
<path d="M19 17.5C19.005 17.8581 18.8818 18.2061 18.6525 18.4812C18.4233 18.7563 18.1032 18.9404 17.75 19H17.5H6.50005H6.25005C5.89694 18.9404 5.57682 18.7563 5.34757 18.4812C5.11831 18.2061 4.99504 17.8581 5.00005 17.5C4.99297 17.1414 5.11549 16.7923 5.34511 16.5167C5.57473 16.2412 5.89604 16.0577 6.25005 16V10.25C6.25005 8.72501 6.85585 7.26247 7.93418 6.18414C9.01252 5.1058 10.4751 4.5 12 4.5C13.525 4.5 14.9876 5.1058 16.0659 6.18414C17.1442 7.26247 17.75 8.72501 17.75 10.25V16C18.1041 16.0577 18.4254 16.2412 18.655 16.5167C18.8846 16.7923 19.0071 17.1414 19 17.5Z" stroke="white" stroke-width="1.5" stroke-linecap="round" stroke-linejoin="round"/>
<path d="M10 21H14" stroke="white" stroke-width="1.5" stroke-linecap="round" stroke-linejoin="round"/>
<path d="M12.82 4.57C12.9367 4.4028 12.9995 4.20391 13 4C13 3.73478 12.8946 3.48043 12.7071 3.29289C12.5196 3.10536 12.2652 3 12 3C11.7348 3 11.4804 3.10536 11.2929 3.29289C11.1054 3.48043 11 3.73478 11 4C11.0005 4.20391 11.0633 4.4028 11.18 4.57" stroke="white" stroke-width="1.5" stroke-linecap="round" stroke-linejoin="round"/>
</svg>
