<svg width="24" height="24" viewBox="0 0 24 24" fill="none" xmlns="http://www.w3.org/2000/svg">
<path d="M19.17 9.25002C19.5459 10.4466 19.6215 11.7173 19.39 12.95C19.1893 13.9848 18.7734 14.9658 18.1691 15.8294C17.5649 16.693 16.7858 17.4199 15.8825 17.9631C14.9792 18.5062 13.9718 18.8533 12.9256 18.982C11.8795 19.1107 10.818 19.018 9.81 18.71C9.60324 18.6352 9.37677 18.6352 9.17 18.71L6.67 20C6.59401 20.0377 6.50874 20.0526 6.42445 20.043C6.34017 20.0334 6.26048 19.9995 6.19497 19.9457C6.12945 19.8918 6.08091 19.8201 6.05519 19.7392C6.02947 19.6584 6.02767 19.5719 6.05 19.49L6.58 17.35C6.61152 17.208 6.60893 17.0606 6.57242 16.9198C6.53592 16.779 6.46655 16.6488 6.37 16.54C5.46611 15.5346 4.8504 14.3038 4.58784 12.9776C4.32529 11.6513 4.42563 10.2788 4.87828 9.00478C5.33093 7.73081 6.1191 6.60265 7.15961 5.73938C8.20011 4.87611 9.45437 4.30973 10.79 4.10002C11.3247 4.00747 11.868 3.97394 12.41 4.00002" stroke="#D9D9D9" stroke-width="1.5" stroke-linecap="round" stroke-linejoin="round"/>
<path d="M16.5 7C17.3284 7 18 6.32843 18 5.5C18 4.67157 17.3284 4 16.5 4C15.6716 4 15 4.67157 15 5.5C15 6.32843 15.6716 7 16.5 7Z" stroke="#D9D9D9" stroke-width="1.5" stroke-linecap="round" stroke-linejoin="round"/>
<path d="M9 11.49V11.5" stroke="#D9D9D9" stroke-width="2" stroke-linecap="round" stroke-linejoin="round"/>
<path d="M12 11.49V11.5" stroke="#D9D9D9" stroke-width="2" stroke-linecap="round" stroke-linejoin="round"/>
<path d="M15 11.49V11.5" stroke="#D9D9D9" stroke-width="2" stroke-linecap="round" stroke-linejoin="round"/>
</svg>
