<svg width="32" height="32" viewBox="0 0 32 32" fill="none" xmlns="http://www.w3.org/2000/svg">
<g clip-path="url(#clip0_118_2914)">
<path d="M13.6933 6.66674L4.49334 22.6667C4.2594 23.0719 4.13619 23.5315 4.13607 23.9994C4.13595 24.4673 4.25893 24.9269 4.49265 25.3322C4.72638 25.7375 5.06262 26.0742 5.46763 26.3085C5.87263 26.5427 6.33214 26.6663 6.8 26.6667H25.2C25.6679 26.6663 26.1274 26.5427 26.5324 26.3085C26.9374 26.0742 27.2736 25.7375 27.5074 25.3322C27.7411 24.9269 27.8641 24.4673 27.8639 23.9994C27.8638 23.5315 27.7406 23.0719 27.5067 22.6667L18.3067 6.66674C18.0723 6.26264 17.7358 5.92721 17.331 5.69404C16.9262 5.46086 16.4672 5.33813 16 5.33813C15.5328 5.33813 15.0739 5.46086 14.669 5.69404C14.2642 5.92721 13.9278 6.26264 13.6933 6.66674Z" stroke="#F1AE96" stroke-width="1.5" stroke-linecap="round" stroke-linejoin="round"/>
<path d="M16 10V18.4" stroke="#F1AE96" stroke-width="1.5" stroke-linecap="round" stroke-linejoin="round"/>
<path d="M16.0013 22L16.0003 22" stroke="#F1AE96" stroke-width="1.5" stroke-linecap="round" stroke-linejoin="round"/>
</g>
<defs>
<clipPath id="clip0_118_2914">
<rect width="32" height="32" fill="white"/>
</clipPath>
</defs>
</svg>
