<svg width="40" height="40" viewBox="0 0 40 40" fill="none" xmlns="http://www.w3.org/2000/svg">
<circle cx="20" cy="20" r="20" fill="#F1F1F1"/>
<path d="M14 19.74L20.56 11.55C20.6893 11.3889 20.8653 11.2717 21.0639 11.2147C21.2625 11.1576 21.4739 11.1635 21.669 11.2314C21.8641 11.2994 22.0334 11.4261 22.1535 11.5942C22.2737 11.7623 22.3388 11.9634 22.34 12.17V18C22.34 18.2652 22.4454 18.5196 22.6329 18.7071C22.8205 18.8947 23.0748 19 23.34 19H25.23C25.4019 19.0131 25.5674 19.0705 25.7105 19.1664C25.8537 19.2623 25.9696 19.3936 26.0471 19.5476C26.1246 19.7015 26.1609 19.8729 26.1527 20.045C26.1445 20.2171 26.0919 20.3842 26 20.53L20.5 28.4C20.3783 28.5744 20.2043 28.7054 20.0031 28.774C19.8019 28.8427 19.584 28.8455 19.3811 28.782C19.1783 28.7184 19.0009 28.5919 18.8748 28.4207C18.7488 28.2495 18.6805 28.0426 18.68 27.83V22.37C18.68 22.1048 18.5747 21.8505 18.3871 21.6629C18.1996 21.4754 17.9452 21.37 17.68 21.37H14.78C14.5908 21.3707 14.4053 21.3176 14.245 21.217C14.0847 21.1164 13.9563 20.9724 13.8746 20.8017C13.7929 20.631 13.7613 20.4406 13.7835 20.2527C13.8057 20.0648 13.8808 19.887 14 19.74Z" stroke="#000D26" stroke-linecap="round" stroke-linejoin="round"/>
</svg>
