<svg width="24" height="24" viewBox="0 0 24 24" fill="none" xmlns="http://www.w3.org/2000/svg">
<path d="M14.49 18.7899C14.2163 19.2025 13.8448 19.5409 13.4086 19.775C12.9724 20.0091 12.4851 20.1316 11.99 20.1316C11.4949 20.1316 11.0076 20.0091 10.5714 19.775C10.1352 19.5409 9.76366 19.2025 9.49 18.7899C5.49 12.9199 5.8 10.0799 5.8 10.0799C5.8 8.44086 6.45111 6.86896 7.61008 5.70998C8.76906 4.55101 10.341 3.8999 11.98 3.8999C13.619 3.8999 15.1909 4.55101 16.3499 5.70998C17.5089 6.86896 18.16 8.44086 18.16 10.0799C18.16 10.0799 18.53 12.9199 14.49 18.7899Z" stroke="#707070" stroke-width="1.5" stroke-linecap="round" stroke-linejoin="round"/>
<path d="M8.87 11.11L10.83 13.07L15.13 8.77002" stroke="#707070" stroke-width="1.5" stroke-linecap="round" stroke-linejoin="round"/>
</svg>
