<svg width="24" height="24" viewBox="0 0 24 24" fill="none" xmlns="http://www.w3.org/2000/svg">
<path d="M9.33 19.9999H7.56C6.61664 19.9973 5.71267 19.6214 5.04561 18.9543C4.37856 18.2872 4.00264 17.3833 4 16.4399V14.6699" stroke="white" stroke-width="1.5" stroke-linecap="round" stroke-linejoin="round"/>
<path d="M20 14.6699V16.4399C19.9974 17.3833 19.6214 18.2872 18.9544 18.9543C18.2873 19.6214 17.3834 19.9973 16.44 19.9999H14.67" stroke="white" stroke-width="1.5" stroke-linecap="round" stroke-linejoin="round"/>
<path d="M14.67 4H16.44C17.3834 4.00264 18.2873 4.37856 18.9544 5.04561C19.6214 5.71267 19.9974 6.61664 20 7.56V9.33" stroke="white" stroke-width="1.5" stroke-linecap="round" stroke-linejoin="round"/>
<path d="M4 9.33V7.56C4.00264 6.61664 4.37856 5.71267 5.04561 5.04561C5.71267 4.37856 6.61664 4.00264 7.56 4H9.33" stroke="white" stroke-width="1.5" stroke-linecap="round" stroke-linejoin="round"/>
<path d="M4 12H20" stroke="white" stroke-width="1.5" stroke-linecap="round" stroke-linejoin="round"/>
</svg>
